# xmcd CD database file
#
# Track frame offsets:
#	150
#	15990
#	39607
#	61437
#	96530
#	121290
#	135837
#	172965
#	222312
#	249220
#	272570
#	300602
#	315594
#
# Disc length: 4568 seconds
#
# Revision: 0
# Processed by: cddbd v1.4PL0 Copyright (c) Steve Scherf et al.
# Submitted via: CDex 1.50beta9
#
DISCID=a811d60d
DTITLE=Various Artist - 2-CD Set for Jazz: The First 100 [CD2(
DYEAR=1900
DGENRE=Jazz
TTITLE0=Clifford Brown - Max Roach Quintet: Powerll's Prances
TTITLE1=Albert Ayler Trio: Ghosts: First Variation
TTITLE2=Ornette Coleman: Street Woman
TTITLE3=John Coletrane: Acknowledgement
TTITLE4=Miles Davis Quintet: E.S.P.
TTITLE5=Bill Evans Trio: Peri's Scope
TTITLE6=The Herbie Hancock Group: Chameleon
TTITLE7=Chick Corea and Return to Forever: Light as a Feather
TTITLE8=Weather Report: Birdland
TTITLE9=Jazz at Lincoln Center: Express Crossing
TTITLE10=Grover Washington, Jr.: Summer Nights
TTITLE11=Steve Coleman and Five Elements: Salt Peanuts
TTITLE12=Tim Hagans: Far West
EXTD=
EXTT0=
EXTT1=
EXTT2=
EXTT3=
EXTT4=
EXTT5=
EXTT6=
EXTT7=
EXTT8=
EXTT9=
EXTT10=
EXTT11=
EXTT12=
PLAYORDER=
